<svg width="13" height="13" viewBox="0 0 13 13" fill="none" xmlns="http://www.w3.org/2000/svg">
<path d="M6.72656 4.61719C6.67188 4.5625 6.5625 4.5625 6.50781 4.61719L2.78906 8.33594L2.625 9.89453C2.59766 10.1133 2.76172 10.2773 2.98047 10.25L4.53906 10.0859L8.25781 6.36719C8.3125 6.3125 8.3125 6.20312 8.25781 6.14844L6.72656 4.61719ZM9.43359 4.28906L8.58594 3.44141C8.33984 3.19531 7.92969 3.19531 7.68359 3.44141L7.02734 4.09766C6.97266 4.15234 6.97266 4.26172 7.02734 4.31641L8.55859 5.84766C8.61328 5.90234 8.72266 5.90234 8.77734 5.84766L9.43359 5.19141C9.67969 4.94531 9.67969 4.53516 9.43359 4.28906ZM12.25 1.9375C12.25 1.22656 11.6484 0.625 10.9375 0.625H1.3125C0.574219 0.625 0 1.22656 0 1.9375V11.5625C0 12.3008 0.574219 12.875 1.3125 12.875H10.9375C11.6484 12.875 12.25 12.3008 12.25 11.5625V1.9375ZM10.9375 11.3984C10.9375 11.5078 10.8555 11.5625 10.7734 11.5625H1.47656C1.36719 11.5625 1.3125 11.5078 1.3125 11.3984V2.10156C1.3125 2.01953 1.36719 1.9375 1.47656 1.9375H10.7734C10.8555 1.9375 10.9375 2.01953 10.9375 2.10156V11.3984Z" fill="#595959"/>
</svg>
