<svg width="14" height="15" viewBox="0 0 14 15" fill="none" xmlns="http://www.w3.org/2000/svg">
<path d="M7.82031 7.3125L6.45312 6.92969C6.34375 6.90234 6.28906 6.79297 6.28906 6.71094C6.28906 6.57422 6.39844 6.46484 6.50781 6.46484H7.41016C7.51953 6.46484 7.60156 6.49219 7.68359 6.54688C7.82031 6.60156 7.98438 6.57422 8.06641 6.49219L8.55859 6C8.69531 5.86328 8.69531 5.61719 8.50391 5.50781C8.25781 5.31641 7.95703 5.23438 7.65625 5.17969V4.6875C7.65625 4.46875 7.4375 4.25 7.21875 4.25H6.78125C6.53516 4.25 6.34375 4.46875 6.34375 4.6875V5.17969C5.49609 5.28906 4.86719 6.02734 4.97656 6.90234C5.05859 7.53125 5.55078 8.02344 6.15234 8.21484L7.51953 8.59766C7.62891 8.625 7.68359 8.73438 7.68359 8.81641C7.68359 8.95312 7.60156 9.0625 7.46484 9.0625H6.5625C6.45312 9.0625 6.37109 9.03516 6.28906 8.98047C6.15234 8.92578 5.98828 8.95312 5.90625 9.03516L5.41406 9.52734C5.27734 9.66406 5.30469 9.91016 5.46875 10.0195C5.71484 10.2109 6.01562 10.293 6.34375 10.3477V10.8125C6.34375 11.0586 6.53516 11.25 6.78125 11.25H7.21875C7.4375 11.25 7.65625 11.0586 7.65625 10.8125V10.3477C8.47656 10.2383 9.10547 9.5 8.99609 8.625C8.91406 7.99609 8.42188 7.50391 7.82031 7.3125ZM14 7.75C14 6.76562 13.4805 5.89062 12.7148 5.39844C12.9062 4.49609 12.6328 3.51172 11.9492 2.80078C11.2383 2.11719 10.2539 1.84375 9.35156 2.03516C8.85938 1.26953 7.98438 0.75 7 0.75C5.98828 0.75 5.11328 1.26953 4.62109 2.03516C3.71875 1.84375 2.73438 2.11719 2.05078 2.80078C1.33984 3.51172 1.06641 4.49609 1.25781 5.39844C0.492188 5.89062 0 6.76562 0 7.75C0 8.76172 0.492188 9.63672 1.25781 10.1289C1.06641 11.0312 1.33984 12.0156 2.05078 12.6992C2.73438 13.4102 3.71875 13.6836 4.62109 13.4922C5.11328 14.2578 5.98828 14.75 7 14.75C7.98438 14.75 8.85938 14.2578 9.35156 13.4922C10.2539 13.6836 11.2383 13.4102 11.9492 12.6992C12.6328 12.0156 12.9062 11.0312 12.7148 10.1289C13.4805 9.63672 14 8.76172 14 7.75ZM11.0195 9.44531C11.2656 9.99219 11.8672 10.9492 11.0195 11.7969C10.2539 12.5625 9.48828 12.1797 8.66797 11.7969C8.44922 12.3711 8.17578 13.4375 7 13.4375C5.74219 13.4375 5.49609 12.2891 5.30469 11.7969C4.73047 12.0703 3.80078 12.6172 2.95312 11.7695C2.07812 10.8945 2.73438 9.91016 2.95312 9.44531C2.37891 9.22656 1.3125 8.95312 1.3125 7.75C1.3125 6.51953 2.46094 6.27344 2.95312 6.08203C2.70703 5.53516 2.13281 4.57812 2.98047 3.73047C3.85547 2.85547 4.83984 3.51172 5.30469 3.73047C5.52344 3.15625 5.79688 2.0625 7 2.0625C8.23047 2.0625 8.47656 3.23828 8.66797 3.73047C9.21484 3.48438 10.1719 2.91016 11.0195 3.75781C11.8945 4.63281 11.2383 5.61719 11.0195 6.08203C11.5938 6.30078 12.6602 6.57422 12.6602 7.77734C12.6602 9.00781 11.5117 9.25391 11.0195 9.44531Z" fill="#595959"/>
</svg>
