<svg width="18" height="18" viewBox="0 0 18 18" fill="none" xmlns="http://www.w3.org/2000/svg">
<g clip-path="url(#clip0)">
<path d="M9.00021 12.514L12.342 10.0859L15.385 11.0931L16.1747 14.4353C15.9276 14.76 15.6575 15.0705 15.364 15.364C14.3815 16.3465 13.2117 17.0733 11.9353 17.5122L9 15.704L9.00021 12.514Z" fill="#F6F9F9"/>
<path d="M8.99998 12.514L5.65796 10.0859L6.93452 6.15723H11.0654L12.342 10.0859L8.99998 12.514Z" fill="#135772"/>
<path d="M5.65803 10.0859L9.00001 12.514V15.7039L6.07097 17.5143C4.79219 17.0756 3.62013 16.3481 2.63606 15.364C2.34491 15.0729 2.07677 14.7649 1.8313 14.443L2.61776 11.0696L5.65803 10.0859Z" fill="#F6F9F9"/>
<path d="M11.9352 17.5119C11.0032 17.8324 10.0146 17.9997 8.99997 17.9997C7.98767 17.9997 7.00109 17.8331 6.07092 17.514L8.99997 15.7036L11.9352 17.5119Z" fill="#135772"/>
<path d="M6.93455 6.15721L5.65802 10.0859L2.61771 11.0696L0.00244141 8.79746C0.0420987 6.99058 0.611411 5.27222 1.63673 3.82106L5.0765 3.56348L6.93455 6.15721Z" fill="#ECECEF"/>
<path d="M11.0654 6.15715H6.93459L5.07654 3.56342L6.38558 0.383729C7.22243 0.130971 8.10115 0 9.00003 0C9.90001 0 10.7798 0.131253 11.6176 0.384609L12.9499 3.57658L11.0654 6.15715Z" fill="#F6F9F9"/>
<path d="M15.3849 11.0931L12.342 10.0859L11.0654 6.1572L12.9499 3.57666L16.373 3.83494C17.3957 5.28815 17.9617 7.00812 17.9977 8.81603L15.3849 11.0931Z" fill="#ECECEF"/>
<path d="M1.83127 14.443C0.643524 12.8853 0 10.9922 0 8.99998C0 8.93231 0.000985274 8.86478 0.00246318 8.79736L2.61773 11.0695L1.83127 14.443Z" fill="#135772"/>
<path d="M1.63672 3.82109C1.93251 3.40246 2.26613 3.00599 2.636 2.63612C3.70027 1.57185 4.98419 0.807034 6.38549 0.383789L5.07645 3.56348L1.63672 3.82109Z" fill="#135772"/>
<path d="M16.373 3.83505L12.9499 3.57677L11.6176 0.384766C13.0177 0.808187 14.3004 1.57269 15.3639 2.63619C15.7379 3.01017 16.0748 3.41128 16.373 3.83505Z" fill="#135772"/>
<path d="M17.9978 8.81592C17.999 8.87718 18.0001 8.93848 18.0001 8.99995C18.0001 10.9889 17.3587 12.879 16.1747 14.4351L15.385 11.093L17.9978 8.81592Z" fill="#135772"/>
<path d="M9.00021 12.514L12.342 10.0859L15.385 11.0931L16.1747 14.4353C15.9276 14.76 15.6575 15.0705 15.364 15.364C14.3815 16.3465 13.2117 17.0733 11.9353 17.5122L9 15.704L9.00021 12.514Z" fill="#ECECEF"/>
<path d="M15.3849 11.0931L12.342 10.0859L11.0654 6.1572L12.9499 3.57666L16.373 3.83494C17.3957 5.28815 17.9617 7.00812 17.9977 8.81603L15.3849 11.0931Z" fill="#DDDDDF"/>
<path d="M16.373 3.83505L12.9499 3.57677L11.6176 0.384766C13.0177 0.808187 14.3004 1.57269 15.3639 2.63619C15.7379 3.01017 16.0748 3.41128 16.373 3.83505Z" fill="#093F61"/>
<path d="M17.9978 8.81592C17.999 8.87718 18.0001 8.93848 18.0001 8.99995C18.0001 10.9889 17.3587 12.879 16.1747 14.4351L15.385 11.093L17.9978 8.81592Z" fill="#093F61"/>
<path d="M9 17.9997C10.0146 17.9997 11.0032 17.8324 11.9353 17.5119L9 15.7036V17.9997Z" fill="#093F61"/>
<path d="M12.9499 3.57661L11.6176 0.384609C10.7798 0.131253 9.89998 0 9 0V6.15715H11.0654L12.9499 3.57661Z" fill="#ECECEF"/>
<path d="M11.0654 6.15723H9V12.514L12.342 10.0859L11.0654 6.15723Z" fill="#093F61"/>
</g>
<defs>
<clipPath id="clip0">
<rect width="18" height="18" fill="white"/>
</clipPath>
</defs>
</svg>
